# xmcd
#
# Track frame offsets: 
#        150
#        3471
#        29531
#        56871
#        81239
#        103753
#        107632
#        124868
#        137007
#        160164
#        165724
#        187960
#        195614
#        223300
#        241566
#
# Disc length: 3727 seconds
#
# Revision: 0
# Processed by: cddbd v1.5.1PL0 Copyright (c) Steve Scherf et al.
# Submitted via: ExactAudioCopy v0.95a5
#
DISCID=ce0e8d0f
DTITLE=Atrixo Fox - Collect the leader Tape 9
DYEAR=2005
DGENRE=Acoustic
TTITLE0=Sorry State
TTITLE1=Fighting the fitness of many
TTITLE2=Could this be war
TTITLE3=Line of Multiples
TTITLE4=Reading Minds
TTITLE5=Rescue Her
TTITLE6=Bush on fire
TTITLE7=Plastic Fantastic
TTITLE8=Sloth
TTITLE9=Fifteen and Done
TTITLE10=Rotundus
TTITLE11=Belly Laughs
TTITLE12=Tuning them up
TTITLE13=When it comes to the end
TTITLE14=Blood Lines
EXTD=
EXTT0=
EXTT1=
EXTT2=
EXTT3=
EXTT4=
EXTT5=
EXTT6=
EXTT7=
EXTT8=
EXTT9=
EXTT10=
EXTT11=
EXTT12=
EXTT13=
EXTT14=
PLAYORDER=
